<svg id="Layer_1" data-name="Layer 1" xmlns="http://www.w3.org/2000/svg" viewBox="0 0 1600 1600"><defs><style>.cls-1{fill:#fff;}</style></defs><title>Artboard 1</title><path d="M1600,1600q-725.23-2.67-1450.5-.5c-40.3.12-109.2.35-149.5.5V0H1600Z"/><polyline class="cls-1" points="0 -0.5 100 -0.5 100 1599.66 0 1599.5"/><polyline class="cls-1" points="1500 -0.5 1600 -0.5 1600 1599.66 1500 1599.5"/><polyline class="cls-1" points="-0.08 99.58 -0.08 -0.42 1600.08 -0.42 1599.92 99.58"/><polyline class="cls-1" points="-0.08 1601.58 -0.08 1501.58 1600.08 1501.58 1599.92 1601.58"/><polyline class="cls-1" points="-0.08 599.58 -0.08 499.58 1600.08 499.58 1599.92 599.58"/><polyline class="cls-1" points="6 1100.58 6 1000.58 1599.08 1000.58 1598.92 1100.58"/><polyline class="cls-1" points="500 1001 600 1001 600 1587.66 500 1587.6"/><polyline class="cls-1" points="1000 500 1100 500 1100 1100 1000 1099.94"/><polyline class="cls-1" points="500 0 600 0 600 600 500 599.94"/></svg>