<?xml version="1.0" encoding="utf-8"?>
<!-- Generator: Adobe Illustrator 22.1.0, SVG Export Plug-In . SVG Version: 6.00 Build 0)  -->
<svg version="1.1" id="Layer_1" xmlns="http://www.w3.org/2000/svg" xmlns:xlink="http://www.w3.org/1999/xlink" x="0px" y="0px"
	 viewBox="0 0 1600 1600" style="enable-background:new 0 0 1600 1600;" xml:space="preserve">
<style type="text/css">
	.st0{fill:#FFFFFF;}
</style>
<g>
	<path d="M1600,1600c-483.5-1.8-967-2-1450.5-0.5c-40.3,0.1-109.2,0.4-149.5,0.5C0,1066.7,0,533.3,0,0c43,0,85.9,0,128.9,0
		C619.3,0,1109.6,0,1600,0C1600,533.3,1600,1066.7,1600,1600z"/>
</g>
<polyline class="st0" points="0,-0.5 100,-0.5 100,1599.7 0,1599.5 "/>
<polyline class="st0" points="1500,-0.5 1600,-0.5 1600,1599.7 1500,1599.5 "/>
<polyline class="st0" points="-0.1,99.6 -0.1,-0.4 1600.1,-0.4 1599.9,99.6 "/>
<polyline class="st0" points="-0.1,1601.6 -0.1,1501.6 1600.1,1501.6 1599.9,1601.6 "/>
<polyline class="st0" points="-0.1,599.6 -0.1,499.6 1600.1,499.6 1599.9,599.6 "/>
<polyline class="st0" points="-1.1,1100.6 -1.1,1000.6 1599.1,1000.6 1598.9,1100.6 "/>
<polyline class="st0" points="500,1001 600,1001 600,1587.7 500,1587.6 "/>
<polyline class="st0" points="1000,500 1100,500 1100,1101 1000,1100.9 "/>
<polyline class="st0" points="500,0 600,0 600,601 500,600.9 "/>
<g>
</g>
<g>
</g>
<g>
</g>
<g>
</g>
<g>
</g>
<g>
</g>
<g>
</g>
<g>
</g>
<g>
</g>
<g>
</g>
<g>
</g>
<g>
</g>
<g>
</g>
<g>
</g>
<g>
</g>
</svg>
